<?xml version="1.0" encoding="UTF-8" standalone="no"?>
<svg
   xmlns:dc="http://purl.org/dc/elements/1.1/"
   xmlns:cc="http://creativecommons.org/ns#"
   xmlns:rdf="http://www.w3.org/1999/02/22-rdf-syntax-ns#"
   xmlns:svg="http://www.w3.org/2000/svg"
   xmlns="http://www.w3.org/2000/svg"
   xmlns:sodipodi="http://sodipodi.sourceforge.net/DTD/sodipodi-0.dtd"
   xmlns:inkscape="http://www.inkscape.org/namespaces/inkscape"
   viewBox="0 0 16 16"
   version="1.1"
   id="svg3823"
   sodipodi:docname="fieldEdit.svg"
   inkscape:version="0.92.3 (2405546, 2018-03-11)"
   width="16"
   height="16">
  <metadata
     id="metadata3829">
    <rdf:RDF>
      <cc:Work
         rdf:about="">
        <dc:format>image/svg+xml</dc:format>
        <dc:type
           rdf:resource="http://purl.org/dc/dcmitype/StillImage" />
        <dc:title />
      </cc:Work>
    </rdf:RDF>
  </metadata>
  <defs
     id="defs3827" />
  <sodipodi:namedview
     pagecolor="#ffffff"
     bordercolor="#666666"
     borderopacity="1"
     objecttolerance="10"
     gridtolerance="10"
     guidetolerance="10"
     inkscape:pageopacity="0"
     inkscape:pageshadow="2"
     inkscape:window-width="1920"
     inkscape:window-height="1017"
     id="namedview3825"
     showgrid="false"
     inkscape:zoom="26.222222"
     inkscape:cx="8.9715328"
     inkscape:cy="3.4552801"
     inkscape:window-x="-8"
     inkscape:window-y="-8"
     inkscape:window-maximized="1"
     inkscape:current-layer="svg3823"
     showguides="true"
     inkscape:guide-bbox="true">
    <sodipodi:guide
       position="12.470339,10.334746"
       orientation="1,0"
       id="guide4873"
       inkscape:locked="false" />
  </sodipodi:namedview>
  <style
     id="style3808">.st0{opacity:0}.st0,.st1{fill:#f6f6f6}.st2{fill:#424242}.st3{fill:#00539c}.st4{fill:#f0eff1}</style>
  <g
     id="outline"
     transform="matrix(0.98569919,0,0,0.98569919,0.07627118,0.059322)">
    <path
       class="st0"
       d="M 0,0 H 16 V 16 H 0 Z"
       id="path3810"
       inkscape:connector-curvature="0"
       style="opacity:0;fill:#f6f6f6" />
    <path
       class="st1"
       d="M 12.995,7.052 11.58,8.466 10.873,9.173 8.752,11.294 8.045,12.001 7.809,12.237 7.08,16 H 7.783 L 10.814,15.243 11.05,15.007 11.757,14.3 13.879,12.179 14.586,11.472 16,10.057 Z"
       id="path3812"
       inkscape:connector-curvature="0"
       style="fill:#f6f6f6" />
  </g>
  <path
     style="fill:#424242;stroke-width:0.98569918"
     inkscape:connector-curvature="0"
     id="path3815"
     d="M 13.75679,10.670374 12.187557,9.1011407 12.885432,8.4042513 14.45368,9.9724988 Z M 13.059901,11.367263 11.490668,9.79803 9.3999998,11.888698 10.968247,13.457931 Z M 8.1806899,14.85171 10.271358,14.15482 8.7031105,12.585587 Z"
     class="st2" />
  <path
     style="fill:#f6f6f6;stroke-width:1.03283906"
     inkscape:connector-curvature="0"
     id="path3817"
     d="M 7.0365733,0.059322 0.07627118,3.5389567 V 8.9469018 L 5.0225373,11.420551 H 5.4563297 L 12.470339,7.9140627 V 2.5061177 L 7.577781,0.059322 Z"
     class="st1" />
  <path
     style="fill:#00539c;stroke-width:1.03283906"
     inkscape:connector-curvature="0"
     id="path3819"
     d="M 1.1091102,4.1906781 V 8.3220342 L 5.2404663,10.387712 11.4375,7.2891951 V 3.1578391 L 7.3061443,1.092161 Z m 4.1313561,1.032839 -2.0656781,-1.032839 4.1313561,-2.065678 2.0656781,1.032839 z"
     class="st3" />
  <path
     class="st4"
     d="M 3.1747882,4.190678 5.2404661,5.223517 9.3718225,3.157839 7.3061441,2.125 Z"
     id="icon_x5F_fg"
     inkscape:connector-curvature="0"
     style="fill:#f0eff1;stroke-width:1.03283906" />
</svg>
