<?xml version="1.0" encoding="UTF-8" standalone="no"?>
<svg
   xmlns:dc="http://purl.org/dc/elements/1.1/"
   xmlns:cc="http://creativecommons.org/ns#"
   xmlns:rdf="http://www.w3.org/1999/02/22-rdf-syntax-ns#"
   xmlns:svg="http://www.w3.org/2000/svg"
   xmlns="http://www.w3.org/2000/svg"
   xmlns:sodipodi="http://sodipodi.sourceforge.net/DTD/sodipodi-0.dtd"
   xmlns:inkscape="http://www.inkscape.org/namespaces/inkscape"
   viewBox="0 0 16 16"
   version="1.1"
   id="svg3883"
   sodipodi:docname="implementInterface.svg"
   width="16"
   height="16"
   inkscape:version="0.92.3 (2405546, 2018-03-11)">
  <metadata
     id="metadata3889">
    <rdf:RDF>
      <cc:Work
         rdf:about="">
        <dc:format>image/svg+xml</dc:format>
        <dc:type
           rdf:resource="http://purl.org/dc/dcmitype/StillImage" />
        <dc:title></dc:title>
      </cc:Work>
    </rdf:RDF>
  </metadata>
  <defs
     id="defs3887" />
  <sodipodi:namedview
     pagecolor="#ffffff"
     bordercolor="#666666"
     borderopacity="1"
     objecttolerance="10"
     gridtolerance="10"
     guidetolerance="10"
     inkscape:pageopacity="0"
     inkscape:pageshadow="2"
     inkscape:window-width="1920"
     inkscape:window-height="1017"
     id="namedview3885"
     showgrid="false"
     inkscape:zoom="26.222222"
     inkscape:cx="10.802716"
     inkscape:cy="10.565771"
     inkscape:window-x="-8"
     inkscape:window-y="-8"
     inkscape:window-maximized="1"
     inkscape:current-layer="svg3883" />
  <style
     id="style3873">.st0{opacity:0}.st0,.st1{fill:#f6f6f6}.st2{fill:#424242}.st3{fill:#00539c}.st4{fill:#f0eff1}</style>
  <g
     id="outline"
     transform="matrix(0.9904661,0,0,0.9904661,0.07627119,0.05932204)">
    <path
       class="st0"
       d="M 0,0 H 16 V 16 H 0 Z"
       id="path3875"
       inkscape:connector-curvature="0"
       style="opacity:0;fill:#f6f6f6" />
    <path
       class="st1"
       d="M 11.5,16 C 9.586,16 7.9,14.76 7.274,13 H 5.591 A 2.988,2.988 0 0 1 3,14.5 C 1.346,14.5 0,13.154 0,11.5 0,9.846 1.346,8.501 3,8.501 4.088,8.501 5.066,9.09 5.591,10 H 7.274 C 7.9,8.242 9.586,7.001 11.5,7.001 13.982,7.001 16,9.02 16,11.5 16,13.982 13.982,16 11.5,16 Z M 6,8.001 l 4,-4 -4,-4 H 0 l 2,2 H 0 v 4 h 2 l -2,2 z"
       id="path3877"
       inkscape:connector-curvature="0"
       style="fill:#f6f6f6" />
  </g>
  <path
     class="st2"
     d="m 11.466631,7.9840413 c -1.741239,0 -3.173453,1.2955296 -3.4161172,2.9704077 H 4.9582786 A 1.9749894,1.9749894 0 0 0 3.0476695,9.46875 a 1.9809322,1.9809322 0 1 0 0,3.961864 c 0.9221239,0 1.6897352,-0.632908 1.9106091,-1.485699 h 3.0922352 c 0.2426642,1.674878 1.6748782,2.971399 3.4161172,2.971399 1.911599,0 3.466632,-1.555033 3.466632,-3.466632 0,-1.9115994 -1.555033,-3.4656407 -3.466632,-3.4656407 z m 0,4.9513407 c -0.818124,0 -1.4856988,-0.665594 -1.4856988,-1.4857 0,-0.818124 0.6675748,-1.4856994 1.4856988,-1.4856994 a 1.4856997,1.4856997 0 0 1 0,2.9713994 z"
     id="icon_x5F_bg"
     inkscape:connector-curvature="0"
     style="fill:#424242;stroke-width:0.99046606" />
  <path
     class="st3"
     d="M 8,4.0221769 5.0286017,6.9935752 H 3.0476695 L 5.0286017,5.0126429 H 1.0667373 V 3.0317108 H 5.0286017 L 3.0476695,1.0507786 h 1.9809322 z"
     id="color_x5F_action"
     inkscape:connector-curvature="0"
     style="fill:#00539c;stroke-width:0.99046606" />
  <path
     class="st4"
     d="m 11.466631,12.935382 c -0.818124,0 -1.4856988,-0.665594 -1.4856988,-1.4857 0,-0.818124 0.6675748,-1.4856994 1.4856988,-1.4856994 a 1.4856997,1.4856997 0 0 1 0,2.9713994 z"
     id="icon_x5F_fg"
     inkscape:connector-curvature="0"
     style="fill:#f0eff1;stroke-width:0.99046606" />
</svg>
