<?xml version="1.0" encoding="UTF-8" standalone="no"?>
<svg
   xmlns:dc="http://purl.org/dc/elements/1.1/"
   xmlns:cc="http://creativecommons.org/ns#"
   xmlns:rdf="http://www.w3.org/1999/02/22-rdf-syntax-ns#"
   xmlns:svg="http://www.w3.org/2000/svg"
   xmlns="http://www.w3.org/2000/svg"
   xmlns:sodipodi="http://sodipodi.sourceforge.net/DTD/sodipodi-0.dtd"
   xmlns:inkscape="http://www.inkscape.org/namespaces/inkscape"
   viewBox="0 0 16 16"
   version="1.1"
   id="svg3883"
   sodipodi:docname="interfaceMethodEdit.svg"
   width="16"
   height="16"
   inkscape:version="0.92.3 (2405546, 2018-03-11)">
  <metadata
     id="metadata3889">
    <rdf:RDF>
      <cc:Work
         rdf:about="">
        <dc:format>image/svg+xml</dc:format>
        <dc:type
           rdf:resource="http://purl.org/dc/dcmitype/StillImage" />
        <dc:title />
      </cc:Work>
    </rdf:RDF>
  </metadata>
  <defs
     id="defs3887" />
  <sodipodi:namedview
     pagecolor="#ffffff"
     bordercolor="#666666"
     borderopacity="1"
     objecttolerance="10"
     gridtolerance="10"
     guidetolerance="10"
     inkscape:pageopacity="0"
     inkscape:pageshadow="2"
     inkscape:window-width="1920"
     inkscape:window-height="1017"
     id="namedview3885"
     showgrid="false"
     inkscape:zoom="22.627417"
     inkscape:cx="-3.1215672"
     inkscape:cy="5.9552372"
     inkscape:window-x="-8"
     inkscape:window-y="-8"
     inkscape:window-maximized="1"
     inkscape:current-layer="svg3883"
     showguides="true"
     inkscape:guide-bbox="true">
    <sodipodi:guide
       position="12.462757,13.876971"
       orientation="1,0"
       id="guide4599"
       inkscape:locked="false" />
  </sodipodi:namedview>
  <style
     id="style3873">.st0{opacity:0}.st0,.st1{fill:#f6f6f6}.st2{fill:#424242}.st3{fill:#00539c}.st4{fill:#f0eff1}</style>
  <path
     style="opacity:0;fill:#f6f6f6;stroke-width:0.99046612"
     inkscape:connector-curvature="0"
     id="path3875"
     d="M 0.07627119,0.05932204 H 15.923729 V 15.90678 H 0.07627119 Z"
     class="st0" />
  <path
     style="opacity:0;fill:#f6f6f6;stroke-width:0.65685689"
     inkscape:connector-curvature="0"
     id="path3735"
     d="M 0.29150275,6.464495 H 10.801213 V 16.974206 H 0.29150275 Z"
     class="st0" />
  <g
     id="g3990"
     transform="matrix(1.9686145,0,0,1.9686145,-0.71517957,-14.121368)">
    <path
       id="path3980"
       d="M 0.42338292,12.516424 V 8.8577308 L 3.631472,7.2352943 6.7213269,8.8649563 v 3.6212517 l -2.9322092,2.149236 z"
       style="fill:#f6f6f6;stroke-width:0.65685689"
       inkscape:connector-curvature="0" />
    <path
       style="fill:#652d90;stroke-width:0.65685689"
       inkscape:connector-curvature="0"
       id="color_x5F_decoration"
       d="M 6.0644698,12.153839 V 9.2616978 L 3.6249032,7.9749152 1.0802398,9.2616978 v 2.8921412 l 2.680633,1.688121 z M 3.5946876,8.4189505 5.6112382,9.4134318 3.7300005,10.541912 1.6970283,9.3819026 Z m -0.015767,4.8436625 v 0.01051 l -0.00654,-0.0053 -0.00529,0.0046 v -0.0098 L 1.4868342,11.906204 V 9.7260956 L 3.5946876,10.90384 v 2.34695 z M 5.6933459,11.973203 4.0012825,13.19233 V 10.917634 L 5.6933459,9.888996 Z"
       class="st2" />
    <g
       transform="matrix(0.65685691,0,0,0.65685691,0.31368782,6.9817475)"
       id="icon_x5F_fg-1">
      <path
         style="fill:#f0eff1;stroke:#652d90;stroke-width:0.15000001;stroke-miterlimit:10"
         inkscape:connector-curvature="0"
         id="path3741"
         d="M 4.995,2.188 8.065,3.701 5.201,5.42 2.106,3.654 Z M 4.971,9.562 V 9.577 L 4.961,9.569 4.953,9.577 V 9.562 L 1.786,7.497 V 4.178 L 4.995,5.971 V 9.544 Z M 8.19,7.599 5.614,9.455 V 5.992 L 8.19,4.426 Z"
         class="st3" />
    </g>
    <g
       id="g3967"
       transform="matrix(0.46115781,0,0,0.46115781,1.7668882,8.0753717)">
      <path
         inkscape:connector-curvature="0"
         id="path3953"
         d="m 10.768273,15.549426 c -1.5764139,0 -2.965042,-1.021293 -3.48063,-2.470869 H 5.9014858 a 2.4609852,2.4609852 0 0 1 -2.134007,1.235434 c -1.3622722,0 -2.4708686,-1.108596 -2.4708686,-2.470869 0,-1.362272 1.1085964,-2.4700446 2.4708686,-2.4700446 0.8961017,0 1.7016049,0.4851138 2.134007,1.2346106 H 7.287643 c 0.515588,-1.447929 1.9042161,-2.470045 3.48063,-2.470045 2.044232,0 3.706303,1.6628946 3.706303,3.705479 0,2.044233 -1.662071,3.706304 -3.706303,3.706304 z"
         style="fill:#f6f6f6;stroke-width:0.82362288" />
      <path
         style="fill:#424242;stroke-width:0.82362282"
         inkscape:connector-curvature="0"
         id="icon_x5F_bg"
         d="m 10.768273,8.9612659 c -1.4479286,0 -2.6388873,1.0772991 -2.840675,2.4700451 H 5.3562474 a 1.642304,1.642304 0 0 0 -1.5887686,-1.235434 1.6472458,1.6472458 0 1 0 0,3.294491 c 0.7667929,0 1.4051007,-0.526295 1.5887686,-1.235434 H 7.927598 c 0.2017877,1.392746 1.3927464,2.470869 2.840675,2.470869 1.589592,0 2.882681,-1.293089 2.882681,-2.882681 0,-1.589592 -1.293089,-2.8818561 -2.882681,-2.8818561 z m 0,4.1172911 c -0.680312,0 -1.235434,-0.553475 -1.235434,-1.235435 0,-0.680311 0.555122,-1.235434 1.235434,-1.235434 a 1.2354348,1.2354348 0 0 1 0,2.470869 z"
         class="st2" />
      <path
         style="fill:#f0eff1;stroke-width:0.82362282"
         inkscape:connector-curvature="0"
         id="icon_x5F_fg"
         d="m 10.768273,13.078557 c -0.680312,0 -1.235434,-0.553475 -1.235434,-1.235435 0,-0.680311 0.555122,-1.235434 1.235434,-1.235434 a 1.2354348,1.2354348 0 0 1 0,2.470869 z"
         class="st4" />
    </g>
  </g>
</svg>
