<?xml version="1.0" encoding="UTF-8" standalone="no"?>
<svg
   xmlns:dc="http://purl.org/dc/elements/1.1/"
   xmlns:cc="http://creativecommons.org/ns#"
   xmlns:rdf="http://www.w3.org/1999/02/22-rdf-syntax-ns#"
   xmlns:svg="http://www.w3.org/2000/svg"
   xmlns="http://www.w3.org/2000/svg"
   xmlns:sodipodi="http://sodipodi.sourceforge.net/DTD/sodipodi-0.dtd"
   xmlns:inkscape="http://www.inkscape.org/namespaces/inkscape"
   viewBox="0 0 16 16"
   version="1.1"
   id="svg3745"
   sodipodi:docname="methodEdit.svg"
   inkscape:version="0.92.3 (2405546, 2018-03-11)">
  <metadata
     id="metadata3751">
    <rdf:RDF>
      <cc:Work
         rdf:about="">
        <dc:format>image/svg+xml</dc:format>
        <dc:type
           rdf:resource="http://purl.org/dc/dcmitype/StillImage" />
      </cc:Work>
    </rdf:RDF>
  </metadata>
  <defs
     id="defs3749" />
  <sodipodi:namedview
     pagecolor="#ffffff"
     bordercolor="#666666"
     borderopacity="1"
     objecttolerance="10"
     gridtolerance="10"
     guidetolerance="10"
     inkscape:pageopacity="0"
     inkscape:pageshadow="2"
     inkscape:window-width="1920"
     inkscape:window-height="1017"
     id="namedview3747"
     showgrid="false"
     inkscape:zoom="33.391154"
     inkscape:cx="8.5701925"
     inkscape:cy="8.2631872"
     inkscape:window-x="-8"
     inkscape:window-y="-8"
     inkscape:window-maximized="1"
     inkscape:current-layer="svg3745" />
  <style
     id="style3733">.st0{opacity:0}.st0,.st1{fill:#f6f6f6}.st2{fill:#652d90}.st3{fill:#f0eff1;stroke:#652d90;stroke-width:.15;stroke-miterlimit:10}.st4{fill:#424242}</style>
  <g
     id="outline"
     transform="matrix(0.99438474,0,0,0.99438474,-0.02994801,4.0358454e-8)">
    <path
       class="st0"
       d="M 0,0 H 16 V 16 H 0 Z"
       id="path3735"
       inkscape:connector-curvature="0"
       style="opacity:0;fill:#f6f6f6" />
    <path
       class="st1"
       d="M 0.167,8.426 V 2.856 L 5.051,0.386 9.755,2.867 V 8.38 L 5.291,11.652 Z M 12.995,7.052 7.809,12.237 7.08,16 H 7.783 L 10.814,15.243 16,10.057 Z"
       id="path3737"
       inkscape:connector-curvature="0"
       style="fill:#f6f6f6" />
  </g>
  <path
     class="st2"
     d="M 8.6758904,7.8297854 V 3.4515095 L 4.9827454,1.5035098 1.130499,3.4515095 V 7.8297854 L 5.1885831,10.385353 Z M 4.9370038,2.1757138 7.9897649,3.6812124 5.141847,5.3895653 2.0642262,3.6334819 Z m -0.023865,7.3325931 v 0.015906 l -0.00995,-0.008 -0.00795,0.00697 v -0.01491 L 1.7460231,7.4549023 V 4.1545394 L 4.9370038,5.9374713 V 9.4904082 Z M 8.114063,7.5563295 5.552528,9.4019076 V 5.9583532 L 8.114063,4.4011469 Z"
     id="color_x5F_decoration"
     inkscape:connector-curvature="0"
     style="fill:#652d90;stroke-width:0.99438471" />
  <g
     id="icon_x5F_fg"
     transform="matrix(0.99438474,0,0,0.99438474,-0.02994801,4.0358454e-8)">
    <path
       class="st3"
       d="M 4.995,2.188 8.065,3.701 5.201,5.42 2.106,3.654 Z M 4.971,9.562 V 9.577 L 4.961,9.569 4.953,9.577 V 9.562 L 1.786,7.497 V 4.178 L 4.995,5.971 V 9.544 Z M 8.19,7.599 5.614,9.455 V 5.992 L 8.19,4.426 Z"
       id="path3741"
       inkscape:connector-curvature="0"
       style="fill:#f0eff1;stroke:#652d90;stroke-width:0.15000001;stroke-miterlimit:10" />
  </g>
  <path
     class="st4"
     d="m 13.771117,10.704551 -1.583059,-1.5830595 0.704024,-0.7030303 1.582064,1.5820658 z m -0.70303,0.703031 -1.583061,-1.5830608 -2.1090882,2.1090898 1.5820652,1.583059 z m -4.9222036,3.515149 2.1090896,-0.70303 -1.5820658,-1.58306 z"
     id="not_x5F_bg"
     inkscape:connector-curvature="0"
     style="fill:#424242;stroke-width:0.99438471" />
</svg>
